<svg width="28" height="28" viewBox="0 0 28 28" fill="none" xmlns="http://www.w3.org/2000/svg">
<path d="M12.2504 2.33333C17.727 2.3335 22.1664 6.7736 22.1664 12.2503C22.1663 14.5682 21.3691 16.6986 20.0365 18.387L25.3256 23.6751C25.7809 24.1308 25.7811 24.87 25.3256 25.3255C24.87 25.781 24.1308 25.7809 23.6752 25.3255L18.3871 20.0365C16.6987 21.369 14.5683 22.1663 12.2504 22.1663C6.77365 22.1663 2.33355 17.727 2.33337 12.2503C2.33337 6.7735 6.77354 2.33333 12.2504 2.33333ZM12.2504 4.66634C8.06221 4.66634 4.66638 8.06216 4.66638 12.2503C4.66656 16.4383 8.06231 19.8333 12.2504 19.8333C16.4383 19.8332 19.8332 16.4382 19.8334 12.2503C19.8334 8.06227 16.4384 4.66651 12.2504 4.66634Z" fill="#19191B"/>
</svg>
